<svg xmlns="http://www.w3.org/2000/svg" viewBox="98.58 56.33 110.00 138.23">
  <path fill="#000000" d="m 144.99651,118.53936 c 0.46648,-0.39267 0.70623,-2.96922 0.53833,-5.78431 l -0.1494,-2.50487 -1.13252,-1.15385 c -0.96317,-0.9814 -1.29222,-1.15467 -2.20181,-1.15919 -1.94865,-0.01 -4.21997,-0.45705 -6.1626,-1.21378 l -1.91832,-0.74722 -0.0179,-2.39028 -0.0179,-2.39028 -0.4786,1.07487 c -0.26317,0.59117 -0.5637,1.46278 -0.6679,1.93689 -0.13565,0.61759 -0.3017,0.81891 -0.58559,0.70995 -0.21796,-0.0837 -0.683,-0.22402 -1.03325,-0.31193 -0.77258,-0.1939 -0.78201,-0.38141 -0.1087,-2.15286 0.44992,-1.18394 1.32158,-7.457147 1.3234,-9.525147 l 4.8e-4,-0.59531 h -9.6203 c -5.29125,0 -10.18332,-0.0771 -10.87131,-0.17146 -1.41575,-0.19405 -1.75634,-0.65977 -1.05183,-1.43825 0.86771,-0.958809 15.91071,-8.269601 24.45387,-11.884501 1.81899,-0.76967 3.34708,-1.43179 3.39567,-1.47137 0.0485,-0.0396 0.15205,-0.54638 0.22981,-1.12622 l 0.14138,-1.05424 3.87129,-0.22438 c 4.68971,-0.27181 22.04468,-0.21012 25.16237,0.0894 l 2.2411,0.21534 0.21206,1.07478 c 0.20703,1.04976 0.26272,1.09543 2.38903,1.96155 7.0125,2.85637 23.84045,11.108452 25.15352,12.334801 0.69364,0.64785 0.71842,0.73492 0.32157,1.13202 -0.37989,0.38017 -1.67394,0.43977 -11.12903,0.5126 l -10.69909,0.0824 0.12717,1.10821 c 0.60884,5.299848 0.95193,7.362507 1.39487,8.384247 0.95055,2.19285 0.95185,2.55668 0.01,2.88501 -1.28025,0.44628 -1.43819,0.37294 -1.79794,-0.83449 -0.18426,-0.61846 -0.49596,-1.42214 -0.69267,-1.78594 -0.32462,-0.6001 -0.35888,-0.44959 -0.36842,1.62279 -0.009,1.94089 -0.08,2.30503 -0.47366,2.42245 -0.25467,0.076 -1.32779,0.44842 -2.38484,0.8276 -1.24349,0.44607 -2.67994,0.73115 -4.06938,0.80762 -2.12548,0.11698 -2.16088,0.13068 -3.41698,1.31998 -1.13406,1.0737 -1.28906,1.35982 -1.45467,2.68488 -0.20821,1.6663 -0.0121,4.94914 0.57902,6.14163 -8.25877,1.17427 -13.94247,-0.17453 -19.04033,0.59086 z m 4.74551,-1.20567 c 2.37816,-0.50382 7.69605,-0.50309 10.3326,10e-4 1.14053,0.21826 2.07374,0.39669 2.07374,0.39652 0,-1.7e-4 0.008,-1.46642 0.0164,-3.25834 l 0.0163,-3.25803 -1.43872,0.86637 c -3.71005,2.23406 -8.88019,2.11481 -12.51206,-0.28861 l -1.01535,-0.67193 0.15299,2.0487 c 0.0841,1.12679 0.0366,2.67682 -0.10584,3.44452 -0.23489,1.26706 -0.21669,1.38243 0.1984,1.25071 0.82641,-0.21272 1.57973,-0.3823 2.28154,-0.53091 z m 8.95311,-5.90869 c 5.17527,-2.32753 8.80743,-8.84328 9.31599,-16.711717 l 0.16245,-2.51354 -13.58749,0.0798 c -7.47314,0.0439 -13.64269,0.13499 -13.71028,0.20249 -0.22178,0.22176 0.47477,5.229618 1.02775,7.390668 1.44691,5.653209 5.14966,10.401109 9.26465,11.879649 1.75767,0.63157 5.78428,0.45647 7.52693,-0.32731 z m -5.80721,-4.68443 c -0.58199,-0.2167 -1.53455,-0.80039 -2.11659,-1.29708 l -1.05842,-0.90307 1.40083,-1.42797 1.40072,-1.42796 2.22724,0.0201 2.22724,0.0201 1.32945,1.30955 1.32949,1.30956 -0.59182,0.63386 c -1.6234,1.73857 -4.21634,2.48205 -6.14814,1.76286 z M 139.52651,73.116922 c 0,-0.56963 2.25611,-11.091906 2.60092,-12.130414 0.38961,-1.173422 0.59797,-1.408608 1.76466,-1.991969 l 1.32292,-0.661458 h 9.26054 c 10.0939,0 10.99442,0.105434 12.09753,1.416478 0.35454,0.421439 0.83359,1.59716 1.10287,2.706982 0.56792,2.341514 2.27204,10.657061 2.19764,10.723571 -0.0287,0.0257 -3.38597,-0.0484 -7.46064,-0.16465 -6.83929,-0.19507 -12.87926,-0.15913 -20.04228,0.11925 -1.56429,0.0608 -2.84416,0.0528 -2.84416,-0.0178 z"/>
  <path fill="#000000" d="m 151.23033,171.59356 c -12.13226,-2.31374 -20.01316,-10.56591 -21.74878,-22.77299 -0.37799,-2.65831 -0.33393,-5.34801 0.13971,-8.53793 1.29431,-8.71599 5.26922,-15.08904 12.25448,-19.64783 1.54558,-1.00867 2.94988,-1.95162 3.12077,-2.09545 9.13748,-3.69474 20.09709,-0.41853 21.45295,0.94975 5.36458,2.53407 9.13899,6.75735 11.0801,12.39807 0.6515,1.89323 0.72933,2.49371 0.73742,5.68854 0.0125,5.17909 -0.93037,8.58834 -3.46894,12.53383 -3.14088,4.88156 -7.82962,8.13448 -13.36464,9.27204 -3.77729,0.77632 -7.91634,0.32695 -11.01773,-1.19618 -2.03658,-1.0002 -4.9767,-3.70569 -5.91895,-5.44663 -1.5698,-2.90043 -2.09498,-7.24641 -1.2889,-10.66514 1.05605,-4.47936 4.00588,-8.32247 7.8437,-10.21924 2.01352,-0.99512 2.15792,-1.02555 4.86692,-1.02555 2.52359,0 2.93709,0.0713 4.30378,0.74246 1.86775,0.91719 3.44664,2.6643 4.19526,4.64258 1.46517,3.87135 -0.37681,9.22795 -3.67502,10.68688 -1.49883,0.66297 -2.65071,0.45445 -3.87656,-0.70174 -1.28978,-1.21644 -1.2668,-2.18467 0.0868,-3.66828 1.30499,-1.42994 1.62502,-2.05807 1.62502,-3.18853 0,-1.38673 -0.71115,-2.0754 -2.30104,-2.22817 -0.73776,-0.0709 -1.76197,0.01 -2.27597,0.17955 -1.39001,0.45872 -3.15439,2.15341 -3.96444,3.80761 -3.11289,6.35741 -0.0146,12.17005 6.68938,12.55243 4.77913,0.27256 9.7078,-2.1344 12.56255,-6.13501 5.58251,-7.82311 3.19899,-18.02627 -5.15416,-22.06394 -3.33366,-1.61136 -5.23983,-1.97883 -9.52504,-1.83618 -2.98178,0.0993 -3.92154,0.2373 -5.68843,0.83563 -5.50551,1.86419 -9.83539,5.89325 -11.86858,11.04369 -1.26323,3.2002 -1.59813,5.0997 -1.6023,9.08935 -0.005,4.48938 0.38885,6.24812 2.27526,10.1662 1.18124,2.45346 1.60969,3.0394 3.88039,5.3085 3.96602,3.96301 7.45448,5.49905 13.06968,5.75512 6.20384,0.28291 10.95537,-1.17303 15.95177,-4.8878 2.74581,-2.04151 7.12431,-6.65447 9.01897,-9.50182 1.78412,-2.68149 3.905,-7.31003 4.49498,-9.80991 0.58506,-2.47893 0.36281,-9.08056 -0.41053,-12.19445 -0.67283,-2.70936 -0.67293,-2.69521 0.018,-2.69521 0.59087,0 10.3379,5.03226 11.14273,5.75288 0.9051,0.81032 0.58105,1.80939 -1.33577,4.11861 -2.25015,2.71078 -8.9304,11.28875 -10.03269,12.88267 -0.45275,0.65484 -1.70554,2.55984 -2.78401,4.23333 -6.33487,9.83104 -12.97698,15.69547 -19.91261,17.58131 -2.20874,0.60055 -7.19412,0.7548 -9.59511,0.29689 z m -1.48831,-54.25987 c 0.75267,-0.2078 -3.05816,0.61186 -2.28154,0.53091 0.25149,-0.0798 1.27747,-0.31891 2.28021,-0.53133 z"/>
  <path fill="#000000" d="m 149.18698,182.05858 c -1.47901,-0.31652 -1.09525,-0.8987 2.26148,-3.43025 1.76728,-1.33286 3.34989,-2.42172 3.51702,-2.4197 0.5129,0.006 6.38911,4.64702 6.38911,5.04584 0,0.23357 -0.55686,0.51545 -1.48025,0.74927 l -1.48035,0.37484 -1.59697,-0.97015 c -0.87838,-0.53358 -1.70609,-0.97015 -1.83925,-0.97015 -0.13321,0 -0.89158,0.41367 -1.68516,0.91927 -1.46107,0.93077 -2.32177,1.07848 -4.08563,0.70103 z m -7.68147,-2.15813 c -0.0927,-0.15029 -0.63565,-1.66276 -1.20628,-3.36105 -1.0861,-3.233 -1.28603,-4.56779 -0.68419,-4.56779 0.19417,0 1.48108,0.45893 2.85958,1.01984 1.3785,0.56092 3.30319,1.285 4.27705,1.60908 1.03652,0.34494 1.77068,0.73956 1.77068,0.95185 0,0.39189 -5.96081,4.62132 -6.51307,4.62132 -0.18419,0 -0.4109,-0.12296 -0.50377,-0.27325 z m 22.36583,-1.85202 c -1.76911,-1.1689 -3.17066,-2.26279 -3.11472,-2.43086 0.0558,-0.16808 0.45166,-0.41886 0.8791,-0.55729 0.4275,-0.13844 2.4325,-0.89568 4.45557,-1.68276 2.24045,-0.87165 3.77357,-1.33585 3.92198,-1.18751 0.2573,0.25732 -1.49838,7.05618 -1.97633,7.65296 -0.14569,0.1819 -0.41878,0.33073 -0.60695,0.33073 -0.18817,0 -1.78951,-0.95637 -3.55865,-2.12527 z m -29.64823,-1.91232 c -0.79385,-0.47442 -1.44346,-1.02935 -1.44346,-1.23317 0,-0.41383 1.47848,-1.02819 2.5488,-1.05911 0.77824,-0.0225 1.01338,0.47606 1.01946,2.16268 0.005,1.23225 -0.25322,1.24797 -2.1248,0.1296 z m 39.0098,-0.64521 c 0.0975,-0.82929 0.23686,-1.56742 0.30978,-1.6403 0.20198,-0.20208 3.08538,0.4562 3.40548,0.7775 0.32097,0.32222 -0.42251,1.00227 -2.02316,1.85043 -1.67443,0.88727 -1.89711,0.75726 -1.6921,-0.98763 z m -45.41977,-4.20835 c -0.29784,-0.29782 -0.22792,-6.79433 0.0887,-8.27207 0.15494,-0.72284 0.45104,-1.3792 0.65791,-1.45856 0.24067,-0.0924 0.88844,0.49478 1.80045,1.63197 1.43455,1.78897 4.18035,4.50007 5.55058,5.48043 1.20316,0.86094 0.53141,1.36756 -2.60233,1.96249 -3.62315,0.68785 -5.2673,0.88404 -5.49562,0.65574 z m 49.68103,-0.46746 c -2.03725,-0.32011 -3.85297,-0.67412 -4.0349,-0.78669 -0.6129,-0.37933 -0.32795,-0.82853 1.51731,-2.39164 1.97133,-1.66997 4.90932,-4.64474 5.64009,-5.71076 0.39546,-0.57684 0.49322,-0.60722 0.83969,-0.26079 0.48734,0.48735 0.99473,4.89571 0.88148,7.66057 -0.0719,1.76347 -0.14006,1.98921 -0.6103,2.02784 -0.29103,0.0239 -2.19607,-0.21843 -4.23337,-0.53853 z m -55.33925,-5.86738 c -0.0862,-0.22512 0.10514,-2.14069 0.42568,-4.25682 0.32067,-2.11613 0.54397,-3.88544 0.49612,-3.9318 -0.0476,-0.0464 -1.46166,-0.63387 -3.1421,-1.30558 -2.41111,-0.96374 -3.15044,-1.38204 -3.50576,-1.98356 -0.69131,-1.17031 -0.60044,-1.61416 0.27731,-1.35446 1.47214,0.43557 8.66367,3.21241 8.88013,3.42886 0.21928,0.21928 -1.20986,8.04781 -1.68283,9.21737 -0.28243,0.69884 -1.50201,0.82856 -1.74855,0.18599 z m 63.7169,-0.0537 c -0.13186,-0.25466 -0.63256,-2.40142 -1.11251,-4.77057 -0.61323,-3.02746 -0.7894,-4.39069 -0.59268,-4.58731 0.47537,-0.47547 9.18911,-3.62903 9.42351,-3.41048 0.24551,0.22888 -0.38785,1.60969 -0.93109,2.02984 -0.19146,0.14811 -1.62803,0.77762 -3.1925,1.3989 -1.56431,0.62128 -2.84538,1.26533 -2.84693,1.43122 -0.002,0.1659 0.2514,1.93374 0.56183,3.92854 0.31039,1.9948 0.49387,3.81051 0.40788,4.0349 -0.21328,0.55558 -1.42115,0.51688 -1.71751,-0.055 z m -66.77557,-4.7625 c -0.49974,-0.57295 -1.00102,-1.5248 -1.00102,-1.90084 0,-0.15508 0.36017,-0.28197 0.80034,-0.28197 0.62681,0 0.85938,0.15549 1.07296,0.71727 0.28357,0.74577 0.13029,1.92856 -0.24982,1.92856 -0.12022,0 -0.40027,-0.20836 -0.62246,-0.46302 z m 70.61837,0.29214 c -0.33471,-0.33474 -0.18666,-1.63866 0.23384,-2.05918 0.41988,-0.41985 1.7047,-0.58443 1.69657,-0.21734 -0.008,0.3744 -1.18617,2.27395 -1.46742,2.3662 -0.15461,0.0507 -0.36298,0.0104 -0.46299,-0.0897 z M 118.9765,149.08576 c -2.42988,-1.17451 -4.13061,-2.15869 -4.31016,-2.49419 -0.38382,-0.71718 -0.25567,-4.91475 0.15005,-4.91475 0.37103,0 9.03343,7.78007 9.22853,8.28858 0.16564,0.43167 -0.31188,1.11486 -0.75653,1.08225 -0.16402,-0.012 -2.10444,-0.89488 -4.31189,-1.96189 z m 66.57673,1.43444 c -0.25831,-0.48267 -0.12287,-0.71544 1.11662,-1.91823 2.77403,-2.69203 8.2061,-7.09427 8.57781,-6.95165 0.46192,0.17728 0.52138,4.03595 0.0772,5.0109 -0.29378,0.64487 -2.38018,1.74628 -6.81197,3.59609 -2.30261,0.96108 -2.57317,0.98511 -2.95967,0.26289 z m -63.78698,-8.44067 c -1.25526,-1.15813 -3.37509,-3.30753 -4.71081,-4.77644 -2.33379,-2.5665 -2.42546,-2.71393 -2.34804,-3.77682 l 0.0806,-1.10607 3.17504,-1.67955 c 1.74619,-0.92375 4.23769,-2.26405 5.53656,-2.97846 1.29895,-0.7144 2.51128,-1.29891 2.69422,-1.29891 0.65229,0 0.65531,1.06402 0.008,2.85838 -1.0215,2.83198 -1.28048,4.57526 -1.45866,9.82024 -0.0972,2.86592 -0.27463,4.90841 -0.43012,4.95837 -0.14563,0.0467 -1.29169,-0.86261 -2.54674,-2.02074 z M 115.714,127.40722 c 0,-0.48225 2.53003,-7.50983 2.81279,-7.81292 0.31379,-0.33637 0.70723,-0.21619 3.02408,0.92374 3.06025,1.5057 3.5825,1.93875 3.09073,2.56248 -0.1808,0.2292 -2.12902,1.32221 -4.3295,2.42891 -3.64332,1.83242 -4.5981,2.22648 -4.5981,1.89779 z m 73.23876,-2.1601 c -2.47123,-1.34512 -4.10177,-2.38643 -4.02801,-2.57241 0.18846,-0.47543 5.31155,-3.09059 6.05439,-3.09059 0.60206,0 0.72512,0.23853 1.6037,3.10885 0.52333,1.70987 1.05351,3.42615 1.17812,3.81397 0.23382,0.72797 0.12663,1.02 -0.3697,1.0074 -0.15759,-0.004 -2.15495,-1.02425 -4.4385,-2.26722 z m -65.16562,-7.39817 c -1.45325,-0.78053 -2.68487,-1.5469 -2.73699,-1.70303 -0.0517,-0.15613 0.37839,-0.90492 0.95645,-1.66398 1.36133,-1.78769 5.76436,-6.20309 6.38061,-6.39871 0.57047,-0.18106 5.02196,2.11413 5.24935,2.70656 0.10372,0.27034 -0.63064,1.12423 -2.25867,2.62615 -1.36372,1.25821 -2.81923,2.89543 -3.34854,3.76672 -0.51484,0.84764 -1.08551,1.66363 -1.26799,1.81331 -0.23969,0.19661 -1.06516,-0.12174 -2.97422,-1.14702 z m 58.6833,-0.31536 c -1.44756,-1.73122 -3.64569,-3.96913 -5.32886,-5.42512 -0.63053,-0.54543 -1.10226,-1.12437 -1.04813,-1.28653 0.18038,-0.54114 4.92238,-2.93387 5.34538,-2.69717 1.9859,1.11133 7.83794,7.62825 7.43528,8.27987 -0.15433,0.24963 -4.69182,2.65031 -5.00934,2.65031 -0.0671,0 -0.6947,-0.68461 -1.39433,-1.52136 z"/>
  <path fill="#000000" d="m 147.46398,192.19166 c -14.55966,-2.29298 -27.2102,-10.46455 -35.56456,-22.9728 -9.14159,-13.68686 -11.32038,-32.15883 -5.68728,-48.21725 2.40561,-6.85773 8.14871,-15.85551 12.96832,-20.31764 2.56047,-2.370529 4.15524,-3.318219 6.16228,-3.662019 2.38747,-0.40896 2.43201,-0.34187 1.92193,2.89164 -0.34261,2.172259 -0.51177,2.670819 -1.01855,3.001779 -2.50667,1.637 -6.87034,6.33698 -9.35844,10.07963 -3.70685,5.5759 -6.3235,12.44847 -7.39449,19.42141 -0.46099,3.00131 -0.53962,10.03773 -0.14652,13.11048 1.79666,14.04428 9.41696,26.32321 21.05169,33.92156 18.71872,12.22475 43.70299,8.7064 58.52679,-8.24191 8.75153,-10.00559 13.10762,-23.58384 11.70545,-36.48546 -0.87585,-8.05831 -3.69078,-15.78598 -8.21666,-22.55683 -2.36696,-3.54086 -6.08208,-7.5328 -8.34931,-8.97136 l -1.36719,-0.86742 -0.41942,-2.28474 c -0.64182,-3.497479 -0.71924,-3.315409 1.32753,-3.124279 2.21491,0.20683 3.99445,1.0396 6.2517,2.92571 6.22858,5.204379 12.58815,16.019999 15.10886,25.695079 1.33905,5.13963 1.60831,7.48168 1.61238,14.02292 0.003,5.226 -0.0808,6.5338 -0.59631,9.26041 -2.09034,11.06037 -6.80057,20.3967 -14.1924,28.13201 -7.17696,7.51034 -16.27533,12.53847 -26.72237,14.76777 -2.75902,0.58875 -3.97766,0.69189 -9.13674,0.77326 -4.38601,0.0692 -6.61482,-0.0103 -8.46669,-0.30195 z"/>
</svg>
