<svg xmlns="http://www.w3.org/2000/svg" viewBox="40 196 236 52">
  <path fill="#000000" d="m 117.56608,240.76328 c 0,-5.11528 0.0174,-5.29167 0.52915,-5.29167 0.50901,0 0.52918,0.17639 0.52918,4.63021 v 4.63021 h 2.64586 2.64582 v 0.66145 0.66146 h -3.17503 -3.17498 z m 16.24386,4.85193 c 0.098,-0.26747 1.03773,-2.65801 2.08773,-5.3123 1.60199,-4.04988 1.99574,-4.82642 2.44837,-4.82865 0.52103,-0.003 1.08041,1.25761 4.54904,10.24995 0.0806,0.20982 -0.11163,0.33073 -0.52674,0.33073 -0.54601,0 -0.74158,-0.22989 -1.1814,-1.38906 l -0.52696,-1.38906 -2.12681,-0.0764 c -1.96472,-0.0706 -2.11644,-0.11594 -1.99108,-0.59531 0.11693,-0.44712 0.36928,-0.51891 1.82461,-0.51891 1.18381,0 1.68388,-0.0989 1.67218,-0.33073 -0.009,-0.1819 -0.4029,-1.32467 -0.87475,-2.53949 l -0.85784,-2.20877 -1.70834,4.45772 c -1.49563,3.90226 -1.78694,4.46888 -2.33762,4.54716 -0.51458,0.0731 -0.59663,7.9e-4 -0.45039,-0.39687 z m 20.64423,0.0827 c -0.0753,-0.19635 -0.10142,-2.28011 -0.0577,-4.63058 l 0.079,-4.27357 -1.67207,2.7e-4 c -1.58273,2.6e-4 -1.66759,-0.0314 -1.58742,-0.59495 0.0823,-0.58143 0.17237,-0.59707 3.85482,-0.67067 l 3.77033,-0.0753 v 0.67067 c 0,0.64331 -0.0646,0.67066 -1.58759,0.67066 h -1.58739 v 4.63021 c 0,4.47767 -0.0169,4.63021 -0.53749,4.63021 -0.29553,0 -0.59915,-0.16065 -0.67445,-0.357 z m 13.22245,-0.0827 c 0.0979,-0.26747 1.03784,-2.65801 2.08773,-5.3123 1.59199,-4.02471 1.99758,-4.82644 2.44222,-4.82865 0.44623,-0.002 0.8437,0.78523 2.43555,4.826 1.04623,2.65575 1.97994,5.037 2.07479,5.29166 0.13509,0.36292 0.0302,0.46302 -0.48413,0.46302 -0.55241,0 -0.73583,-0.22044 -1.15519,-1.38906 l -0.49866,-1.38906 -2.1529,-0.0764 c -1.99067,-0.0706 -2.14274,-0.11551 -2.01726,-0.59531 0.11789,-0.45092 0.37001,-0.51891 1.92398,-0.51891 h 1.78824 l -0.95485,-2.49577 c -0.52532,-1.37267 -0.99333,-2.4575 -1.04008,-2.41074 -0.0467,0.0468 -0.82302,2.03307 -1.72507,4.414 -1.43876,3.7976 -1.71757,4.33995 -2.27158,4.4184 -0.517,0.0732 -0.5992,0.001 -0.45279,-0.39687 z m 18.9457,-4.85193 v -5.29167 h 0.64246 c 0.55416,0 0.88913,0.46948 2.44193,3.4229 0.98992,1.8826 1.86154,3.36167 1.93729,3.28684 0.0757,-0.0748 0.91236,-1.58538 1.85915,-3.35676 1.32915,-2.48691 1.85661,-3.23995 2.315,-3.30524 l 0.59378,-0.0845 v 5.31006 c 0,5.11092 -0.0189,5.31007 -0.5225,5.31007 -0.495,0 -0.52627,-0.21881 -0.59525,-4.15744 l -0.073,-4.15745 -1.66959,3.23141 c -0.91835,1.77727 -1.81122,3.22952 -1.98447,3.22723 -0.17307,-0.002 -1.08869,-1.43974 -2.0345,-3.19431 l -1.71983,-3.19015 -0.073,4.12036 c -0.0691,3.9017 -0.10057,4.12035 -0.5953,4.12035 -0.50278,0 -0.52244,-0.19907 -0.52244,-5.29166 z"/>
  <path fill="#000000" d="m 261.39999,227.36571 c -2.94259,-0.9036 -5.14698,-3.095 -6.02658,-5.99093 -0.81873,-2.69537 -0.60696,-5.91039 0.54325,-8.24682 1.05406,-2.14081 3.17592,-4.13365 5.21312,-4.89586 1.55943,-0.58347 4.27821,-0.77338 5.92585,-0.41393 2.49962,0.54532 5.0867,2.70156 6.11242,5.09459 0.5968,1.39228 1.02735,4.26073 0.83444,5.55942 l -0.1278,0.8599 h -6.84911 c -7.49725,0 -7.30004,-0.0467 -6.47734,1.53449 0.79906,1.53593 2.73429,2.69884 4.49092,2.69884 1.23725,0 3.89945,-0.85589 4.91793,-1.58106 0.4582,-0.32634 0.89079,-0.53578 0.9611,-0.46544 0.42002,0.42011 2.22289,2.97121 2.22289,3.14559 0,0.44161 -2.85299,2.11239 -4.45959,2.61169 -2.02774,0.6301 -5.38677,0.6714 -7.2815,0.0895 z m 7.1069,-12.33311 c -0.48665,-1.68502 -2.29133,-3.10937 -3.93776,-3.10787 -1.28606,10e-4 -2.49438,0.67516 -3.3968,1.89472 -1.37739,1.86136 -1.47287,1.80846 3.26359,1.80846 h 4.24287 z"/>
  <path fill="#000000" d="m 241.73133,227.42951 c -3.60204,-1.17296 -5.97735,-3.83751 -6.70135,-7.51728 -0.65625,-3.33551 0.24125,-6.53466 2.52528,-9.00171 3.75232,-4.05298 9.3823,-4.53324 13.92647,-1.18801 l 1.62477,1.19611 -1.57352,1.57352 -1.57352,1.57352 -1.57224,-0.83037 c -1.38037,-0.72905 -1.77327,-0.81789 -3.22046,-0.72804 -2.06302,0.12809 -3.62754,1.11796 -4.50331,2.84952 -2.42898,4.80255 2.76238,9.50928 7.64272,6.92911 l 1.4192,-0.75036 1.53728,1.31946 1.5373,1.31947 -1.11424,1.13531 c -1.6512,1.68243 -3.29032,2.3049 -6.32589,2.40222 -1.62163,0.052 -2.90919,-0.0482 -3.62849,-0.28247 z"/>
  <path fill="#000000" d="m 216.52019,227.38314 c -6.36995,-2.02629 -8.46341,-11.39225 -3.70906,-16.59423 1.61007,-1.76168 3.44012,-2.76832 5.55957,-3.05817 2.67767,-0.36621 4.57922,0.17491 6.48034,1.8441 l 0.92955,0.81621 v -1.21803 -1.21804 h 2.64592 2.64582 v 9.78959 9.78958 h -2.51355 -2.5135 v -1.3586 -1.3586 l -0.53407,0.67893 c -0.29373,0.37341 -1.26528,1.04431 -2.15896,1.49089 -1.40245,0.70083 -1.89976,0.80944 -3.6332,0.79354 -1.10451,-0.0101 -2.54401,-0.18887 -3.19886,-0.39717 z m 6.02427,-4.49183 c 2.12223,-0.88676 3.23613,-2.6583 3.23613,-5.14674 0,-2.62582 -1.5001,-4.78819 -3.59451,-5.18108 -3.70149,-0.69442 -6.43862,1.47845 -6.4538,5.12343 -0.01,2.41459 1.04774,4.19576 3.03688,5.11382 1.29984,0.59991 2.48798,0.62842 3.7753,0.0906 z"/>
  <path fill="#000000" d="m 196.14736,217.74453 v -9.78959 l 2.71203,-5.2e-4 2.71184,-5.3e-4 -0.091,1.78649 -0.0907,1.78649 0.88484,-1.31714 c 1.20016,-1.78641 2.53835,-2.50939 4.65523,-2.51496 l 1.65359,-0.004 v 2.66205 2.66204 l -1.14325,-0.17145 c -2.28405,-0.3425 -4.35667,0.69966 -5.23421,2.63177 -0.42599,0.93788 -0.49085,1.79773 -0.49595,6.56924 l -0.006,5.4901 h -2.77813 -2.7781 z"/>
  <path fill="#000000" d="m 181.59522,216.47733 v -11.05679 l -0.59531,-0.005 c -0.32743,-0.003 -1.99429,-0.0278 -3.70414,-0.0557 l -3.10881,-0.0508 v -2.24896 -2.24896 h 10.45095 10.45116 v 2.24896 2.24896 h -3.83661 -3.83642 v 11.1125 11.1125 h -2.91032 -2.9105 z"/>
  <path fill="#000000" d="m 149.65634,227.4149 c -2.69446,-0.84206 -4.65126,-2.5624 -5.86973,-5.16033 -0.611,-1.30255 -0.68806,-1.79404 -0.68693,-4.3777 9.5e-4,-2.60046 0.0765,-3.07154 0.70911,-4.42332 0.93456,-1.99766 2.84382,-3.99865 4.66578,-4.89004 1.19439,-0.58438 1.93426,-0.741 3.90817,-0.82733 3.09292,-0.13527 4.61799,0.33424 6.45727,1.98789 2.31067,2.07752 3.4274,4.70511 3.43659,8.08665 l 0.004,1.52135 h -7.02917 c -6.90299,0 -7.02658,0.01 -6.87925,0.52916 0.0823,0.29105 0.21542,0.75996 0.29508,1.04204 0.21759,0.76987 1.82706,2.06838 2.99883,2.41945 1.51253,0.45315 3.71235,0.0908 5.78666,-0.95318 0.97391,-0.49016 1.78464,-0.8681 1.80164,-0.83986 0.0164,0.0282 0.52627,0.71701 1.13171,1.5306 0.60537,0.81358 1.10082,1.54323 1.10082,1.62142 0,0.39159 -3.02716,2.15052 -4.47848,2.60223 -1.94436,0.60516 -5.625,0.67072 -7.35208,0.13096 z m 7.068,-12.07774 c 0,-0.65988 -0.8676,-2.04559 -1.63665,-2.61428 -1.82066,-1.34602 -4.34396,-0.87588 -5.7552,1.07228 -1.32993,1.83585 -1.33552,1.83274 3.29091,1.83274 2.80366,0 4.10094,-0.092 4.10094,-0.29074 z"/>
  <path fill="#000000" d="m 133.70564,213.77578 v -6.87917 -6.87917 h 1.3891 1.38909 1.38903 1.38902 v 6.87917 6.87917 6.87917 6.87916 h -1.38902 -1.38903 -1.38909 -1.3891 v -6.87916 z"/>
  <path fill="#000000" d="m 123.44984,217.81067 0.0693,-9.72343 2.71184,-0.085 2.71201,-0.085 v 9.80844 9.80843 h -2.78142 -2.78127 z m 1.52453,-12.42317 c -0.80295,-0.29218 -1.84985,-1.51782 -2.00566,-2.34797 -0.61754,-3.29182 4.55528,-4.96384 6.10229,-1.97241 1.11062,2.14774 -0.39926,4.54376 -2.82674,4.48569 -0.48014,-0.0115 -1.05155,-0.0859 -1.26989,-0.16531 z"/>
  <path fill="#000000" d="m 112.98449,227.4328 c -2.59567,-0.97056 -2.82676,-1.68618 -2.82676,-8.75373 v -5.69704 l -1.78592,2.3e-4 -1.78595,2.3e-4 v -2.38098 -2.38097 l 1.78595,-5.3e-4 1.78592,-5.3e-4 v -3.04271 -3.04271 h 2.64585 2.64582 v 2.91042 2.91041 h 1.86569 1.86567 l -0.0491,2.22297 -0.0491,2.22297 -0.79148,0.15828 c -0.43522,0.0871 -1.25277,0.15833 -1.81664,0.15833 h -1.02525 v 4.7625 c 0,4.48706 0.0322,4.79467 0.55628,5.31877 0.47657,0.47658 0.75138,0.5318 1.91822,0.38549 l 1.36199,-0.17078 -0.086,1.96228 c -0.0802,1.83349 -0.13234,1.98349 -0.79376,2.28533 -1.11435,0.50855 -4.25495,0.60805 -5.42174,0.17177 z"/>
  <path fill="#000000" d="m 85.056216,227.01785 c 0.199646,-0.28394 1.743727,-2.46466 3.431279,-4.84603 l 3.068299,-4.32977 -3.021443,-4.34824 c -1.661785,-2.39153 -3.136004,-4.5566 -3.276032,-4.81126 -0.235763,-0.42877 -0.03177,-0.46302 2.75727,-0.46302 h 3.011867 l 1.782541,2.77977 c 0.980392,1.52888 1.883172,2.71758 2.006186,2.64155 0.123005,-0.076 0.976041,-1.32575 1.895632,-2.77718 l 1.671974,-2.63896 2.992181,-0.003 c 2.32052,-0.002 2.94896,0.0716 2.79972,0.32813 -0.10585,0.1819 -1.6019,2.32113 -3.32459,4.75384 l -3.132118,4.4231 3.392958,4.57273 c 1.86612,2.515 3.48124,4.72155 3.58916,4.90346 0.15234,0.25678 -0.48428,0.33072 -2.84748,0.33072 h -3.043668 l -2.06516,-2.90754 c -1.135837,-1.5991 -2.124693,-2.90451 -2.197454,-2.90086 -0.07276,0.004 -1.015689,1.31205 -2.095399,2.90755 l -1.963114,2.90091 h -2.897803 c -2.821307,0 -2.88823,-0.0136 -2.534806,-0.51626 z"/>
  <path fill="#000000" d="m 70.020424,227.32023 c -2.665044,-0.9484 -4.411405,-2.52866 -5.611519,-5.07779 -0.60532,-1.28575 -0.683485,-1.77872 -0.671282,-4.23333 0.01714,-3.43699 0.613083,-5.16184 2.495012,-7.22098 1.926094,-2.10745 3.744,-2.90797 6.917002,-3.04594 2.325567,-0.10112 2.6848,-0.049 4.130255,0.59972 3.361349,1.50849 5.333161,4.57084 5.565373,8.64335 l 0.133808,2.34677 h -7.065984 -7.065993 l 0.183642,0.59531 c 1.126609,3.65216 4.717096,4.62138 9.04698,2.44216 0.973911,-0.49016 1.778809,-0.8681 1.788664,-0.83986 0.0094,0.0282 0.526527,0.74065 1.148167,1.58312 l 1.130248,1.53178 -0.611744,0.51913 c -0.336469,0.28552 -1.496202,0.96427 -2.577169,1.50834 -1.849916,0.93108 -2.129813,0.99358 -4.762509,1.06354 -2.191349,0.0582 -3.095037,-0.0317 -4.172951,-0.41532 z m 7.328996,-12.18241 c 0,-0.76379 -1.0957,-2.18243 -2.116668,-2.7405 -1.155529,-0.63163 -3.164566,-0.51581 -4.186892,0.24136 -0.814627,0.60335 -1.898527,2.10566 -1.898527,2.63143 0,0.28522 0.831421,0.35775 4.101053,0.35775 3.815495,0 4.101034,-0.0341 4.101034,-0.49004 z"/>
  <path fill="#000000" d="m 49.832758,216.42161 v -11.1125 h -3.836461 -3.836455 v -2.24896 -2.24896 h 10.583336 10.583337 v 2.24896 2.24896 h -3.836472 -3.836456 v 11.1125 11.1125 h -2.910409 -2.91042 z"/>
</svg>