<svg xmlns="http://www.w3.org/2000/svg" viewBox="0 0 236 200">
  <!-- Logo icon (centered) -->
  <g transform="translate(-35.58 -56.33)">
    <path fill="#000000" d="m 144.99651,118.53936 c 0.46648,-0.39267 0.70623,-2.96922 0.53833,-5.78431 l -0.1494,-2.50487 -1.13252,-1.15385 c -0.96317,-0.9814 -1.29222,-1.15467 -2.20181,-1.15919 -1.94865,-0.01 -4.21997,-0.45705 -6.1626,-1.21378 l -1.91832,-0.74722 -0.0179,-2.39028 -0.0179,-2.39028 -0.4786,1.07487 c -0.26317,0.59117 -0.5637,1.46278 -0.6679,1.93689 -0.13565,0.61759 -0.3017,0.81891 -0.58559,0.70995 -0.21796,-0.0837 -0.683,-0.22402 -1.03325,-0.31193 -0.77258,-0.1939 -0.78201,-0.38141 -0.1087,-2.15286 0.44992,-1.18394 1.32158,-7.457147 1.3234,-9.525147 l 4.8e-4,-0.59531 h -9.6203 c -5.29125,0 -10.18332,-0.0771 -10.87131,-0.17146 -1.41575,-0.19405 -1.75634,-0.65977 -1.05183,-1.43825 0.86771,-0.958809 15.91071,-8.269601 24.45387,-11.884501 1.81899,-0.76967 3.34708,-1.43179 3.39567,-1.47137 0.0485,-0.0396 0.15205,-0.54638 0.22981,-1.12622 l 0.14138,-1.05424 3.87129,-0.22438 c 4.68971,-0.27181 22.04468,-0.21012 25.16237,0.0894 l 2.2411,0.21534 0.21206,1.07478 c 0.20703,1.04976 0.26272,1.09543 2.38903,1.96155 7.0125,2.85637 23.84045,11.108452 25.15352,12.334801 0.69364,0.64785 0.71842,0.73492 0.32157,1.13202 -0.37989,0.38017 -1.67394,0.43977 -11.12903,0.5126 l -10.69909,0.0824 0.12717,1.10821 c 0.60884,5.299848 0.95193,7.362507 1.39487,8.384247 0.95055,2.19285 0.95185,2.55668 0.01,2.88501 -1.28025,0.44628 -1.43819,0.37294 -1.79794,-0.83449 -0.18426,-0.61846 -0.49596,-1.42214 -0.69267,-1.78594 -0.32462,-0.6001 -0.35888,-0.44959 -0.36842,1.62279 -0.009,1.94089 -0.08,2.30503 -0.47366,2.42245 -0.25467,0.076 -1.32779,0.44842 -2.38484,0.8276 -1.24349,0.44607 -2.67994,0.73115 -4.06938,0.80762 -2.12548,0.11698 -2.16088,0.13068 -3.41698,1.31998 -1.13406,1.0737 -1.28906,1.35982 -1.45467,2.68488 -0.20821,1.6663 -0.0121,4.94914 0.57902,6.14163 -8.25877,1.17427 -13.94247,-0.17453 -19.04033,0.59086 z m 4.74551,-1.20567 c 2.37816,-0.50382 7.69605,-0.50309 10.3326,10e-4 1.14053,0.21826 2.07374,0.39669 2.07374,0.39652 0,-1.7e-4 0.008,-1.46642 0.0164,-3.25834 l 0.0163,-3.25803 -1.43872,0.86637 c -3.71005,2.23406 -8.88019,2.11481 -12.51206,-0.28861 l -1.01535,-0.67193 0.15299,2.0487 c 0.0841,1.12679 0.0366,2.67682 -0.10584,3.44452 -0.23489,1.26706 -0.21669,1.38243 0.1984,1.25071 0.82641,-0.21272 1.57973,-0.3823 2.28154,-0.53091 z m 8.95311,-5.90869 c 5.17527,-2.32753 8.80743,-8.84328 9.31599,-16.711717 l 0.16245,-2.51354 -13.58749,0.0798 c -7.47314,0.0439 -13.64269,0.13499 -13.71028,0.20249 -0.22178,0.22176 0.47477,5.229618 1.02775,7.390668 1.44691,5.653209 5.14966,10.401109 9.26465,11.879649 1.75767,0.63157 5.78428,0.45647 7.52693,-0.32731 z m -5.80721,-4.68443 c -0.58199,-0.2167 -1.53455,-0.80039 -2.11659,-1.29708 l -1.05842,-0.90307 1.40083,-1.42797 1.40072,-1.42796 2.22724,0.0201 2.22724,0.0201 1.32945,1.30955 1.32949,1.30956 -0.59182,0.63386 c -1.6234,1.73857 -4.21634,2.48205 -6.14814,1.76286 z M 139.52651,73.116922 c 0,-0.56963 2.25611,-11.091906 2.60092,-12.130414 0.38961,-1.173422 0.59797,-1.408608 1.76466,-1.991969 l 1.32292,-0.661458 h 9.26054 c 10.0939,0 10.99442,0.105434 12.09753,1.416478 0.35454,0.421439 0.83359,1.59716 1.10287,2.706982 0.56792,2.341514 2.27204,10.657061 2.19764,10.723571 -0.0287,0.0257 -3.38597,-0.0484 -7.46064,-0.16465 -6.83929,-0.19507 -12.87926,-0.15913 -20.04228,0.11925 -1.56429,0.0608 -2.84416,0.0528 -2.84416,-0.0178 z"/>
    <path fill="#000000" d="m 151.23033,171.59356 c -12.13226,-2.31374 -20.01316,-10.56591 -21.74878,-22.77299 -0.37799,-2.65831 -0.33393,-5.34801 0.13971,-8.53793 1.29431,-8.71599 5.26922,-15.08904 12.25448,-19.64783 1.54558,-1.00867 2.94988,-1.95162 3.12077,-2.09545 9.13748,-3.69474 20.09709,-0.41853 21.45295,0.94975 5.36458,2.53407 9.13899,6.75735 11.0801,12.39807 0.6515,1.89323 0.72933,2.49371 0.73742,5.68854 0.0125,5.17909 -0.93037,8.58834 -3.46894,12.53383 -3.14088,4.88156 -7.82962,8.13448 -13.36464,9.27204 -3.77729,0.77632 -7.91634,0.32695 -11.01773,-1.19618 -2.03658,-1.0002 -4.9767,-3.70569 -5.91895,-5.44663 -1.5698,-2.90043 -2.09498,-7.24641 -1.2889,-10.66514 1.05605,-4.47936 4.00588,-8.32247 7.8437,-10.21924 2.01352,-0.99512 2.15792,-1.02555 4.86692,-1.02555 2.52359,0 2.93709,0.0713 4.30378,0.74246 1.86775,0.91719 3.44664,2.6643 4.19526,4.64258 1.46517,3.87135 -0.37681,9.22795 -3.67502,10.68688 -1.49883,0.66297 -2.65071,0.45445 -3.87656,-0.70174 -1.28978,-1.21644 -1.2668,-2.18467 0.0868,-3.66828 1.30499,-1.42994 1.62502,-2.05807 1.62502,-3.18853 0,-1.38673 -0.71115,-2.0754 -2.30104,-2.22817 -0.73776,-0.0709 -1.76197,0.01 -2.27597,0.17955 -1.39001,0.45872 -3.15439,2.15341 -3.96444,3.80761 -3.11289,6.35741 -0.0146,12.17005 6.68938,12.55243 4.77913,0.27256 9.7078,-2.1344 12.56255,-6.13501 5.58251,-7.82311 3.19899,-18.02627 -5.15416,-22.06394 -3.33366,-1.61136 -5.23983,-1.97883 -9.52504,-1.83618 -2.98178,0.0993 -3.92154,0.2373 -5.68843,0.83563 -5.50551,1.86419 -9.83539,5.89325 -11.86858,11.04369 -1.26323,3.2002 -1.59813,5.0997 -1.6023,9.08935 -0.005,4.48938 0.38885,6.24812 2.27526,10.1662 1.18124,2.45346 1.60969,3.0394 3.88039,5.3085 3.96602,3.96301 7.45448,5.49905 13.06968,5.75512 6.20384,0.28291 10.95537,-1.17303 15.95177,-4.8878 2.74581,-2.04151 7.12431,-6.65447 9.01897,-9.50182 1.78412,-2.68149 3.905,-7.31003 4.49498,-9.80991 0.58506,-2.47893 0.36281,-9.08056 -0.41053,-12.19445 -0.67283,-2.70936 -0.67293,-2.69521 0.018,-2.69521 0.59087,0 10.3379,5.03226 11.14273,5.75288 0.9051,0.81032 0.58105,1.80939 -1.33577,4.11861 -2.25015,2.71078 -8.9304,11.28875 -10.03269,12.88267 -0.45275,0.65484 -1.70554,2.55984 -2.78401,4.23333 -6.33487,9.83104 -12.97698,15.69547 -19.91261,17.58131 -2.20874,0.60055 -7.19412,0.7548 -9.59511,0.29689 z m -1.48831,-54.25987 c 0.75267,-0.2078 -3.05816,0.61186 -2.28154,0.53091 0.25149,-0.0798 1.27747,-0.31891 2.28021,-0.53133 z"/>
    <path fill="#000000" d="m 149.18698,182.05858 c -1.47901,-0.31652 -1.09525,-0.8987 2.26148,-3.43025 1.76728,-1.33286 3.34989,-2.42172 3.51702,-2.4197 0.5129,0.006 6.38911,4.64702 6.38911,5.04584 0,0.23357 -0.55686,0.51545 -1.48025,0.74927 l -1.48035,0.37484 -1.59697,-0.97015 c -0.87838,-0.53358 -1.70609,-0.97015 -1.83925,-0.97015 -0.13321,0 -0.89158,0.41367 -1.68516,0.91927 -1.46107,0.93077 -2.32177,1.07848 -4.08563,0.70103 z m -7.68147,-2.15813 c -0.0927,-0.15029 -0.63565,-1.66276 -1.20628,-3.36105 -1.0861,-3.233 -1.28603,-4.56779 -0.68419,-4.56779 0.19417,0 1.48108,0.45893 2.85958,1.01984 1.3785,0.56092 3.30319,1.285 4.27705,1.60908 1.03652,0.34494 1.77068,0.73956 1.77068,0.95185 0,0.39189 -5.96081,4.62132 -6.51307,4.62132 -0.18419,0 -0.4109,-0.12296 -0.50377,-0.27325 z m 22.36583,-1.85202 c -1.76911,-1.1689 -3.17066,-2.26279 -3.11472,-2.43086 0.0558,-0.16808 0.45166,-0.41886 0.8791,-0.55729 0.4275,-0.13844 2.4325,-0.89568 4.45557,-1.68276 2.24045,-0.87165 3.77357,-1.33585 3.92198,-1.18751 0.2573,0.25732 -1.49838,7.05618 -1.97633,7.65296 -0.14569,0.1819 -0.41878,0.33073 -0.60695,0.33073 -0.18817,0 -1.78951,-0.95637 -3.55865,-2.12527 z m -29.64823,-1.91232 c -0.79385,-0.47442 -1.44346,-1.02935 -1.44346,-1.23317 0,-0.41383 1.47848,-1.02819 2.5488,-1.05911 0.77824,-0.0225 1.01338,0.47606 1.01946,2.16268 0.005,1.23225 -0.25322,1.24797 -2.1248,0.1296 z m 39.0098,-0.64521 c 0.0975,-0.82929 0.23686,-1.56742 0.30978,-1.6403 0.20198,-0.20208 3.08538,0.4562 3.40548,0.7775 0.32097,0.32222 -0.42251,1.00227 -2.02316,1.85043 -1.67443,0.88727 -1.89711,0.75726 -1.6921,-0.98763 z m -45.41977,-4.20835 c -0.29784,-0.29782 -0.22792,-6.79433 0.0887,-8.27207 0.15494,-0.72284 0.45104,-1.3792 0.65791,-1.45856 0.24067,-0.0924 0.88844,0.49478 1.80045,1.63197 1.43455,1.78897 4.18035,4.50007 5.55058,5.48043 1.20316,0.86094 0.53141,1.36756 -2.60233,1.96249 -3.62315,0.68785 -5.2673,0.88404 -5.49562,0.65574 z m 49.68103,-0.46746 c -2.03725,-0.32011 -3.85297,-0.67412 -4.0349,-0.78669 -0.6129,-0.37933 -0.32795,-0.82853 1.51731,-2.39164 1.97133,-1.66997 4.90932,-4.64474 5.64009,-5.71076 0.39546,-0.57684 0.49322,-0.60722 0.83969,-0.26079 0.48734,0.48735 0.99473,4.89571 0.88148,7.66057 -0.0719,1.76347 -0.14006,1.98921 -0.6103,2.02784 -0.29103,0.0239 -2.19607,-0.21843 -4.23337,-0.53853 z m -55.33925,-5.86738 c -0.0862,-0.22512 0.10514,-2.14069 0.42568,-4.25682 0.32067,-2.11613 0.54397,-3.88544 0.49612,-3.9318 -0.0476,-0.0464 -1.46166,-0.63387 -3.1421,-1.30558 -2.41111,-0.96374 -3.15044,-1.38204 -3.50576,-1.98356 -0.69131,-1.17031 -0.60044,-1.61416 0.27731,-1.35446 1.47214,0.43557 8.66367,3.21241 8.88013,3.42886 0.21928,0.21928 -1.20986,8.04781 -1.68283,9.21737 -0.28243,0.69884 -1.50201,0.82856 -1.74855,0.18599 z m 63.7169,-0.0537 c -0.13186,-0.25466 -0.63256,-2.40142 -1.11251,-4.77057 -0.61323,-3.02746 -0.7894,-4.39069 -0.59268,-4.58731 0.47537,-0.47547 9.18911,-3.62903 9.42351,-3.41048 0.24551,0.22888 -0.38785,1.60969 -0.93109,2.02984 -0.19146,0.14811 -1.62803,0.77762 -3.1925,1.3989 -1.56431,0.62128 -2.84538,1.26533 -2.84693,1.43122 -0.002,0.1659 0.2514,1.93374 0.56183,3.92854 0.31039,1.9948 0.49387,3.81051 0.40788,4.0349 -0.21328,0.55558 -1.42115,0.51688 -1.71751,-0.055 z m -66.77557,-4.7625 c -0.49974,-0.57295 -1.00102,-1.5248 -1.00102,-1.90084 0,-0.15508 0.36017,-0.28197 0.80034,-0.28197 0.62681,0 0.85938,0.15549 1.07296,0.71727 0.28357,0.74577 0.13029,1.92856 -0.24982,1.92856 -0.12022,0 -0.40027,-0.20836 -0.62246,-0.46302 z m 70.61837,0.29214 c -0.33471,-0.33474 -0.18666,-1.63866 0.23384,-2.05918 0.41988,-0.41985 1.7047,-0.58443 1.69657,-0.21734 -0.008,0.3744 -1.18617,2.27395 -1.46742,2.3662 -0.15461,0.0507 -0.36298,0.0104 -0.46299,-0.0897 z M 118.9765,149.08576 c -2.42988,-1.17451 -4.13061,-2.15869 -4.31016,-2.49419 -0.38382,-0.71718 -0.25567,-4.91475 0.15005,-4.91475 0.37103,0 9.03343,7.78007 9.22853,8.28858 0.16564,0.43167 -0.31188,1.11486 -0.75653,1.08225 -0.16402,-0.012 -2.10444,-0.89488 -4.31189,-1.96189 z m 66.57673,1.43444 c -0.25831,-0.48267 -0.12287,-0.71544 1.11662,-1.91823 2.77403,-2.69203 8.2061,-7.09427 8.57781,-6.95165 0.46192,0.17728 0.52138,4.03595 0.0772,5.0109 -0.29378,0.64487 -2.38018,1.74628 -6.81197,3.59609 -2.30261,0.96108 -2.57317,0.98511 -2.95967,0.26289 z m -63.78698,-8.44067 c -1.25526,-1.15813 -3.37509,-3.30753 -4.71081,-4.77644 -2.33379,-2.5665 -2.42546,-2.71393 -2.34804,-3.77682 l 0.0806,-1.10607 3.17504,-1.67955 c 1.74619,-0.92375 4.23769,-2.26405 5.53656,-2.97846 1.29895,-0.7144 2.51128,-1.29891 2.69422,-1.29891 0.65229,0 0.65531,1.06402 0.008,2.85838 -1.0215,2.83198 -1.28048,4.57526 -1.45866,9.82024 -0.0972,2.86592 -0.27463,4.90841 -0.43012,4.95837 -0.14563,0.0467 -1.29169,-0.86261 -2.54674,-2.02074 z M 115.714,127.40722 c 0,-0.48225 2.53003,-7.50983 2.81279,-7.81292 0.31379,-0.33637 0.70723,-0.21619 3.02408,0.92374 3.06025,1.5057 3.5825,1.93875 3.09073,2.56248 -0.1808,0.2292 -2.12902,1.32221 -4.3295,2.42891 -3.64332,1.83242 -4.5981,2.22648 -4.5981,1.89779 z m 73.23876,-2.1601 c -2.47123,-1.34512 -4.10177,-2.38643 -4.02801,-2.57241 0.18846,-0.47543 5.31155,-3.09059 6.05439,-3.09059 0.60206,0 0.72512,0.23853 1.6037,3.10885 0.52333,1.70987 1.05351,3.42615 1.17812,3.81397 0.23382,0.72797 0.12663,1.02 -0.3697,1.0074 -0.15759,-0.004 -2.15495,-1.02425 -4.4385,-2.26722 z m -65.16562,-7.39817 c -1.45325,-0.78053 -2.68487,-1.5469 -2.73699,-1.70303 -0.0517,-0.15613 0.37839,-0.90492 0.95645,-1.66398 1.36133,-1.78769 5.76436,-6.20309 6.38061,-6.39871 0.57047,-0.18106 5.02196,2.11413 5.24935,2.70656 0.10372,0.27034 -0.63064,1.12423 -2.25867,2.62615 -1.36372,1.25821 -2.81923,2.89543 -3.34854,3.76672 -0.51484,0.84764 -1.08551,1.66363 -1.26799,1.81331 -0.23969,0.19661 -1.06516,-0.12174 -2.97422,-1.14702 z m 58.6833,-0.31536 c -1.44756,-1.73122 -3.64569,-3.96913 -5.32886,-5.42512 -0.63053,-0.54543 -1.10226,-1.12437 -1.04813,-1.28653 0.18038,-0.54114 4.92238,-2.93387 5.34538,-2.69717 1.9859,1.11133 7.83794,7.62825 7.43528,8.27987 -0.15433,0.24963 -4.69182,2.65031 -5.00934,2.65031 -0.0671,0 -0.6947,-0.68461 -1.39433,-1.52136 z"/>
    <path fill="#000000" d="m 147.46398,192.19166 c -14.55966,-2.29298 -27.2102,-10.46455 -35.56456,-22.9728 -9.14159,-13.68686 -11.32038,-32.15883 -5.68728,-48.21725 2.40561,-6.85773 8.14871,-15.85551 12.96832,-20.31764 2.56047,-2.370529 4.15524,-3.318219 6.16228,-3.662019 2.38747,-0.40896 2.43201,-0.34187 1.92193,2.89164 -0.34261,2.172259 -0.51177,2.670819 -1.01855,3.001779 -2.50667,1.637 -6.87034,6.33698 -9.35844,10.07963 -3.70685,5.5759 -6.3235,12.44847 -7.39449,19.42141 -0.46099,3.00131 -0.53962,10.03773 -0.14652,13.11048 1.79666,14.04428 9.41696,26.32321 21.05169,33.92156 18.71872,12.22475 43.70299,8.7064 58.52679,-8.24191 8.75153,-10.00559 13.10762,-23.58384 11.70545,-36.48546 -0.87585,-8.05831 -3.69078,-15.78598 -8.21666,-22.55683 -2.36696,-3.54086 -6.08208,-7.5328 -8.34931,-8.97136 l -1.36719,-0.86742 -0.41942,-2.28474 c -0.64182,-3.497479 -0.71924,-3.315409 1.32753,-3.124279 2.21491,0.20683 3.99445,1.0396 6.2517,2.92571 6.22858,5.204379 12.58815,16.019999 15.10886,25.695079 1.33905,5.13963 1.60831,7.48168 1.61238,14.02292 0.003,5.226 -0.0808,6.5338 -0.59631,9.26041 -2.09034,11.06037 -6.80057,20.3967 -14.1924,28.13201 -7.17696,7.51034 -16.27533,12.53847 -26.72237,14.76777 -2.75902,0.58875 -3.97766,0.69189 -9.13674,0.77326 -4.38601,0.0692 -6.61482,-0.0103 -8.46669,-0.30195 z"/>
  </g>
  <!-- Text logo (centered below) -->
  <g transform="translate(-40 -48)">
    <path fill="#000000" d="m 117.56608,240.76328 c 0,-5.11528 0.0174,-5.29167 0.52915,-5.29167 0.50901,0 0.52918,0.17639 0.52918,4.63021 v 4.63021 h 2.64586 2.64582 v 0.66145 0.66146 h -3.17503 -3.17498 z m 16.24386,4.85193 c 0.098,-0.26747 1.03773,-2.65801 2.08773,-5.3123 1.60199,-4.04988 1.99574,-4.82642 2.44837,-4.82865 0.52103,-0.003 1.08041,1.25761 4.54904,10.24995 0.0806,0.20982 -0.11163,0.33073 -0.52674,0.33073 -0.54601,0 -0.74158,-0.22989 -1.1814,-1.38906 l -0.52696,-1.38906 -2.12681,-0.0764 c -1.96472,-0.0706 -2.11644,-0.11594 -1.99108,-0.59531 0.11693,-0.44712 0.36928,-0.51891 1.82461,-0.51891 1.18381,0 1.68388,-0.0989 1.67218,-0.33073 -0.009,-0.1819 -0.4029,-1.32467 -0.87475,-2.53949 l -0.85784,-2.20877 -1.70834,4.45772 c -1.49563,3.90226 -1.78694,4.46888 -2.33762,4.54716 -0.51458,0.0731 -0.59663,7.9e-4 -0.45039,-0.39687 z m 20.64423,0.0827 c -0.0753,-0.19635 -0.10142,-2.28011 -0.0577,-4.63058 l 0.079,-4.27357 -1.67207,2.7e-4 c -1.58273,2.6e-4 -1.66759,-0.0314 -1.58742,-0.59495 0.0823,-0.58143 0.17237,-0.59707 3.85482,-0.67067 l 3.77033,-0.0753 v 0.67067 c 0,0.64331 -0.0646,0.67066 -1.58759,0.67066 h -1.58739 v 4.63021 c 0,4.47767 -0.0169,4.63021 -0.53749,4.63021 -0.29553,0 -0.59915,-0.16065 -0.67445,-0.357 z m 13.22245,-0.0827 c 0.0979,-0.26747 1.03784,-2.65801 2.08773,-5.3123 1.59199,-4.02471 1.99758,-4.82644 2.44222,-4.82865 0.44623,-0.002 0.8437,0.78523 2.43555,4.826 1.04623,2.65575 1.97994,5.037 2.07479,5.29166 0.13509,0.36292 0.0302,0.46302 -0.48413,0.46302 -0.55241,0 -0.73583,-0.22044 -1.15519,-1.38906 l -0.49866,-1.38906 -2.1529,-0.0764 c -1.99067,-0.0706 -2.14274,-0.11551 -2.01726,-0.59531 0.11789,-0.45092 0.37001,-0.51891 1.92398,-0.51891 h 1.78824 l -0.95485,-2.49577 c -0.52532,-1.37267 -0.99333,-2.4575 -1.04008,-2.41074 -0.0467,0.0468 -0.82302,2.03307 -1.72507,4.414 -1.43876,3.7976 -1.71757,4.33995 -2.27158,4.4184 -0.517,0.0732 -0.5992,0.001 -0.45279,-0.39687 z m 18.9457,-4.85193 v -5.29167 h 0.64246 c 0.55416,0 0.88913,0.46948 2.44193,3.4229 0.98992,1.8826 1.86154,3.36167 1.93729,3.28684 0.0757,-0.0748 0.91236,-1.58538 1.85915,-3.35676 1.32915,-2.48691 1.85661,-3.23995 2.315,-3.30524 l 0.59378,-0.0845 v 5.31006 c 0,5.11092 -0.0189,5.31007 -0.5225,5.31007 -0.495,0 -0.52627,-0.21881 -0.59525,-4.15744 l -0.073,-4.15745 -1.66959,3.23141 c -0.91835,1.77727 -1.81122,3.22952 -1.98447,3.22723 -0.17307,-0.002 -1.08869,-1.43974 -2.0345,-3.19431 l -1.71983,-3.19015 -0.073,4.12036 c -0.0691,3.9017 -0.10057,4.12035 -0.5953,4.12035 -0.50278,0 -0.52244,-0.19907 -0.52244,-5.29166 z"/>
    <path fill="#000000" d="m 261.39999,227.36571 c -2.94259,-0.9036 -5.14698,-3.095 -6.02658,-5.99093 -0.81873,-2.69537 -0.60696,-5.91039 0.54325,-8.24682 1.05406,-2.14081 3.17592,-4.13365 5.21312,-4.89586 1.55943,-0.58347 4.27821,-0.77338 5.92585,-0.41393 2.49962,0.54532 5.0867,2.70156 6.11242,5.09459 0.5968,1.39228 1.02735,4.26073 0.83444,5.55942 l -0.1278,0.8599 h -6.84911 c -7.49725,0 -7.30004,-0.0467 -6.47734,1.53449 0.79906,1.53593 2.73429,2.69884 4.49092,2.69884 1.23725,0 3.89945,-0.85589 4.91793,-1.58106 0.4582,-0.32634 0.89079,-0.53578 0.9611,-0.46544 0.42002,0.42011 2.22289,2.97121 2.22289,3.14559 0,0.44161 -2.85299,2.11239 -4.45959,2.61169 -2.02774,0.6301 -5.38677,0.6714 -7.2815,0.0895 z m 7.1069,-12.33311 c -0.48665,-1.68502 -2.29133,-3.10937 -3.93776,-3.10787 -1.28606,10e-4 -2.49438,0.67516 -3.3968,1.89472 -1.37739,1.86136 -1.47287,1.80846 3.26359,1.80846 h 4.24287 z"/>
    <path fill="#000000" d="m 241.73133,227.42951 c -3.60204,-1.17296 -5.97735,-3.83751 -6.70135,-7.51728 -0.65625,-3.33551 0.24125,-6.53466 2.52528,-9.00171 3.75232,-4.05298 9.3823,-4.53324 13.92647,-1.18801 l 1.62477,1.19611 -1.57352,1.57352 -1.57352,1.57352 -1.57224,-0.83037 c -1.38037,-0.72905 -1.77327,-0.81789 -3.22046,-0.72804 -2.06302,0.12809 -3.62754,1.11796 -4.50331,2.84952 -2.42898,4.80255 2.76238,9.50928 7.64272,6.92911 l 1.4192,-0.75036 1.53728,1.31946 1.5373,1.31947 -1.11424,1.13531 c -1.6512,1.68243 -3.29032,2.3049 -6.32589,2.40222 -1.62163,0.052 -2.90919,-0.0482 -3.62849,-0.28247 z"/>
    <path fill="#000000" d="m 216.52019,227.38314 c -6.36995,-2.02629 -8.46341,-11.39225 -3.70906,-16.59423 1.61007,-1.76168 3.44012,-2.76832 5.55957,-3.05817 2.67767,-0.36621 4.57922,0.17491 6.48034,1.8441 l 0.92955,0.81621 v -1.21803 -1.21804 h 2.64592 2.64582 v 9.78959 9.78958 h -2.51355 -2.5135 v -1.3586 -1.3586 l -0.53407,0.67893 c -0.29373,0.37341 -1.26528,1.04431 -2.15896,1.49089 -1.40245,0.70083 -1.89976,0.80944 -3.6332,0.79354 -1.10451,-0.0101 -2.54401,-0.18887 -3.19886,-0.39717 z m 6.02427,-4.49183 c 2.12223,-0.88676 3.23613,-2.6583 3.23613,-5.14674 0,-2.62582 -1.5001,-4.78819 -3.59451,-5.18108 -3.70149,-0.69442 -6.43862,1.47845 -6.4538,5.12343 -0.01,2.41459 1.04774,4.19576 3.03688,5.11382 1.29984,0.59991 2.48798,0.62842 3.7753,0.0906 z"/>
    <path fill="#000000" d="m 196.14736,217.74453 v -9.78959 l 2.71203,-5.2e-4 2.71184,-5.3e-4 -0.091,1.78649 -0.0907,1.78649 0.88484,-1.31714 c 1.20016,-1.78641 2.53835,-2.50939 4.65523,-2.51496 l 1.65359,-0.004 v 2.66205 2.66204 l -1.14325,-0.17145 c -2.28405,-0.3425 -4.35667,0.69966 -5.23421,2.63177 -0.42599,0.93788 -0.49085,1.79773 -0.49595,6.56924 l -0.006,5.4901 h -2.77813 -2.7781 z"/>
    <path fill="#000000" d="m 181.59522,216.47733 v -11.05679 l -0.59531,-0.005 c -0.32743,-0.003 -1.99429,-0.0278 -3.70414,-0.0557 l -3.10881,-0.0508 v -2.24896 -2.24896 h 10.45095 10.45116 v 2.24896 2.24896 h -3.83661 -3.83642 v 11.1125 11.1125 h -2.91032 -2.9105 z"/>
    <path fill="#000000" d="m 149.65634,227.4149 c -2.69446,-0.84206 -4.65126,-2.5624 -5.86973,-5.16033 -0.611,-1.30255 -0.68806,-1.79404 -0.68693,-4.3777 9.5e-4,-2.60046 0.0765,-3.07154 0.70911,-4.42332 0.93456,-1.99766 2.84382,-3.99865 4.66578,-4.89004 1.19439,-0.58438 1.93426,-0.741 3.90817,-0.82733 3.09292,-0.13527 4.61799,0.33424 6.45727,1.98789 2.31067,2.07752 3.4274,4.70511 3.43659,8.08665 l 0.004,1.52135 h -7.02917 c -6.90299,0 -7.02658,0.01 -6.87925,0.52916 0.0823,0.29105 0.21542,0.75996 0.29508,1.04204 0.21759,0.76987 1.82706,2.06838 2.99883,2.41945 1.51253,0.45315 3.71235,0.0908 5.78666,-0.95318 0.97391,-0.49016 1.78464,-0.8681 1.80164,-0.83986 0.0164,0.0282 0.52627,0.71701 1.13171,1.5306 0.60537,0.81358 1.10082,1.54323 1.10082,1.62142 0,0.39159 -3.02716,2.15052 -4.47848,2.60223 -1.94436,0.60516 -5.625,0.67072 -7.35208,0.13096 z m 7.068,-12.07774 c 0,-0.65988 -0.8676,-2.04559 -1.63665,-2.61428 -1.82066,-1.34602 -4.34396,-0.87588 -5.7552,1.07228 -1.32993,1.83585 -1.33552,1.83274 3.29091,1.83274 2.80366,0 4.10094,-0.092 4.10094,-0.29074 z"/>
    <path fill="#000000" d="m 133.70564,213.77578 v -6.87917 -6.87917 h 1.3891 1.38909 1.38903 1.38902 v 6.87917 6.87917 6.87917 6.87916 h -1.38902 -1.38903 -1.38909 -1.3891 v -6.87916 z"/>
    <path fill="#000000" d="m 123.44984,217.81067 0.0693,-9.72343 2.71184,-0.085 2.71201,-0.085 v 9.80844 9.80843 h -2.78142 -2.78127 z m 1.52453,-12.42317 c -0.80295,-0.29218 -1.84985,-1.51782 -2.00566,-2.34797 -0.61754,-3.29182 4.55528,-4.96384 6.10229,-1.97241 1.11062,2.14774 -0.39926,4.54376 -2.82674,4.48569 -0.48014,-0.0115 -1.05155,-0.0859 -1.26989,-0.16531 z"/>
    <path fill="#000000" d="m 112.98449,227.4328 c -2.59567,-0.97056 -2.82676,-1.68618 -2.82676,-8.75373 v -5.69704 l -1.78592,2.3e-4 -1.78595,2.3e-4 v -2.38098 -2.38097 l 1.78595,-5.3e-4 1.78592,-5.3e-4 v -3.04271 -3.04271 h 2.64585 2.64582 v 2.91042 2.91041 h 1.86569 1.86567 l -0.0491,2.22297 -0.0491,2.22297 -0.79148,0.15828 c -0.43522,0.0871 -1.25277,0.15833 -1.81664,0.15833 h -1.02525 v 4.7625 c 0,4.48706 0.0322,4.79467 0.55628,5.31877 0.47657,0.47658 0.75138,0.5318 1.91822,0.38549 l 1.36199,-0.17078 -0.086,1.96228 c -0.0802,1.83349 -0.13234,1.98349 -0.79376,2.28533 -1.11435,0.50855 -4.25495,0.60805 -5.42174,0.17177 z"/>
    <path fill="#000000" d="m 85.056216,227.01785 c 0.199646,-0.28394 1.743727,-2.46466 3.431279,-4.84603 l 3.068299,-4.32977 -3.021443,-4.34824 c -1.661785,-2.39153 -3.136004,-4.5566 -3.276032,-4.81126 -0.235763,-0.42877 -0.03177,-0.46302 2.75727,-0.46302 h 3.011867 l 1.782541,2.77977 c 0.980392,1.52888 1.883172,2.71758 2.006186,2.64155 0.123005,-0.076 0.976041,-1.32575 1.895632,-2.77718 l 1.671974,-2.63896 2.992181,-0.003 c 2.32052,-0.002 2.94896,0.0716 2.79972,0.32813 -0.10585,0.1819 -1.6019,2.32113 -3.32459,4.75384 l -3.132118,4.4231 3.392958,4.57273 c 1.86612,2.515 3.48124,4.72155 3.58916,4.90346 0.15234,0.25678 -0.48428,0.33072 -2.84748,0.33072 h -3.043668 l -2.06516,-2.90754 c -1.135837,-1.5991 -2.124693,-2.90451 -2.197454,-2.90086 -0.07276,0.004 -1.015689,1.31205 -2.095399,2.90755 l -1.963114,2.90091 h -2.897803 c -2.821307,0 -2.88823,-0.0136 -2.534806,-0.51626 z"/>
    <path fill="#000000" d="m 70.020424,227.32023 c -2.665044,-0.9484 -4.411405,-2.52866 -5.611519,-5.07779 -0.60532,-1.28575 -0.683485,-1.77872 -0.671282,-4.23333 0.01714,-3.43699 0.613083,-5.16184 2.495012,-7.22098 1.926094,-2.10745 3.744,-2.90797 6.917002,-3.04594 2.325567,-0.10112 2.6848,-0.049 4.130255,0.59972 3.361349,1.50849 5.333161,4.57084 5.565373,8.64335 l 0.133808,2.34677 h -7.065984 -7.065993 l 0.183642,0.59531 c 1.126609,3.65216 4.717096,4.62138 9.04698,2.44216 0.973911,-0.49016 1.778809,-0.8681 1.788664,-0.83986 0.0094,0.0282 0.526527,0.74065 1.148167,1.58312 l 1.130248,1.53178 -0.611744,0.51913 c -0.336469,0.28552 -1.496202,0.96427 -2.577169,1.50834 -1.849916,0.93108 -2.129813,0.99358 -4.762509,1.06354 -2.191349,0.0582 -3.095037,-0.0317 -4.172951,-0.41532 z m 7.328996,-12.18241 c 0,-0.76379 -1.0957,-2.18243 -2.116668,-2.7405 -1.155529,-0.63163 -3.164566,-0.51581 -4.186892,0.24136 -0.814627,0.60335 -1.898527,2.10566 -1.898527,2.63143 0,0.28522 0.831421,0.35775 4.101053,0.35775 3.815495,0 4.101034,-0.0341 4.101034,-0.49004 z"/>
    <path fill="#000000" d="m 49.832758,216.42161 v -11.1125 h -3.836461 -3.836455 v -2.24896 -2.24896 h 10.583336 10.583337 v 2.24896 2.24896 h -3.836472 -3.836456 v 11.1125 11.1125 h -2.910409 -2.91042 z"/>
  </g>
</svg>