<svg xmlns="http://www.w3.org/2000/svg" viewBox="0 0 260 160" fill="none">
  <g stroke="#353535" stroke-linecap="round" stroke-linejoin="round">
    <rect x="8" y="14" width="244" height="132" rx="30" fill="#353535" fill-opacity="0.08" stroke-width="2" stroke-opacity="0.25"/>

    <path d="M28 85C45 63 57 106 76 84C95 62 111 106 132 84C152 62 167 106 190 84C203 71 214 74 220 80" stroke-width="6" stroke-opacity="0.9"/>
    <path d="M28 85C45 63 57 106 76 84C95 62 111 106 132 84C152 62 167 106 190 84C203 71 214 74 220 80" stroke-width="2" stroke-dasharray="6 9" stroke-opacity="0.34"/>

    <ellipse cx="58" cy="45" rx="22" ry="9" fill="#353535" fill-opacity="0.22" stroke-width="2" stroke-opacity="0.72"/>
    <rect x="36" y="45" width="44" height="64" rx="10" fill="#353535" fill-opacity="0.18" stroke-width="2" stroke-opacity="0.72"/>
    <ellipse cx="58" cy="109" rx="22" ry="9" fill="#353535" fill-opacity="0.28" stroke-width="2" stroke-opacity="0.75"/>
    <path d="M44 60H72" stroke-width="2" stroke-opacity="0.45"/>
    <path d="M44 74H72" stroke-width="2" stroke-opacity="0.45"/>
    <path d="M44 88H72" stroke-width="2" stroke-opacity="0.45"/>

    <path d="M176 112L222 52" stroke-width="4" stroke-opacity="0.8"/>
    <path d="M222 52L228 41" stroke-width="3" stroke-opacity="0.6"/>
    <ellipse cx="174" cy="112" rx="4" ry="6" transform="rotate(-37 174 112)" stroke-width="2" stroke-opacity="0.7"/>

    <path d="M196 35L199 41L205 43L199 45L196 51L193 45L187 43L193 41L196 35Z" fill="#353535" fill-opacity="0.55" stroke="none"/>
    <circle cx="165" cy="49" r="3" fill="#353535" fill-opacity="0.42" stroke="none"/>
    <circle cx="157" cy="39" r="2" fill="#353535" fill-opacity="0.34" stroke="none"/>
  </g>
</svg>
